<svg width="490" height="489" viewBox="0 0 490 489" fill="none" xmlns="http://www.w3.org/2000/svg">
<path opacity="0.251" fill-rule="evenodd" clip-rule="evenodd" d="M437.987 477.956C440.683 477.956 442.882 480.077 443.014 482.747H489.999V483.253H443.014C442.882 485.924 440.683 488.049 437.987 488.049C435.207 488.049 432.955 485.789 432.955 483C432.955 481.224 433.871 479.662 435.255 478.763L406.361 428.598C405.748 428.909 405.054 429.084 404.32 429.084C401.903 429.084 399.928 427.188 399.796 424.8H343.059C342.927 428.05 340.256 430.644 336.981 430.644C333.622 430.644 330.901 427.914 330.901 424.546C330.901 422.38 332.026 420.478 333.723 419.396L305.514 370.417C304.854 370.755 304.106 370.946 303.313 370.946C300.635 370.946 298.467 368.773 298.467 366.092C298.467 363.408 300.635 361.233 303.313 361.233C304.106 361.233 304.853 361.424 305.514 361.763L333.879 312.512C332.274 311.485 331.21 309.684 331.21 307.632C331.21 305.583 332.274 303.783 333.879 302.755L304.911 252.461C304.428 252.697 303.886 252.831 303.313 252.831C301.386 252.831 299.81 251.329 299.68 249.432H242.202C242.07 252.766 239.332 255.428 235.974 255.428C232.532 255.428 229.741 252.63 229.741 249.179C229.741 246.957 230.898 245.006 232.641 243.898L205.322 196.463C204.421 196.94 203.396 197.21 202.307 197.21C198.816 197.21 195.972 194.441 195.839 190.975H140.054C139.922 193.677 137.697 195.828 134.968 195.828C132.154 195.828 129.876 193.541 129.876 190.721C129.876 188.921 130.803 187.342 132.205 186.432L103.033 135.782C102.511 136.042 101.923 136.187 101.301 136.187C99.223 136.187 97.527 134.569 97.397 132.52H33.814L0.0739766 73.935L0.000976562 73.809L33.668 15.355L25.379 0.960022H25.965L34.107 15.101H96.947C97.078 12.805 98.977 10.983 101.301 10.983C102.004 10.983 102.669 11.15 103.257 11.447L101.153 15.101H101.154L103.257 11.447L109.296 0.960022H109.882L103.696 11.702C104.879 12.483 105.66 13.828 105.66 15.355C105.66 16.88 104.879 18.224 103.696 19.005L123.94 54.155L131.329 66.981C132.413 66.401 133.652 66.07 134.968 66.07C139.146 66.07 142.549 69.4 142.684 73.556H194.671C194.806 69.443 198.172 66.154 202.307 66.154C203.608 66.154 204.833 66.48 205.904 67.054L202.16 73.556H202.161L205.904 67.054L224.508 34.755L233.059 19.909C231.567 18.945 230.58 17.265 230.58 15.355C230.58 13.444 231.568 11.765 233.06 10.803L227.393 0.960022H227.979L233.499 10.548C234.241 10.164 235.082 9.94602 235.974 9.94602C238.87 9.94602 241.235 12.232 241.367 15.101H297.018C297.088 13.341 297.875 11.767 299.096 10.663L293.507 0.960022H296.554L301.382 9.34202C301.99 9.14502 302.639 9.04002 303.313 9.04002C304.37 9.04002 305.366 9.30002 306.241 9.76102L311.31 0.960022H311.895L306.68 10.016C308.442 11.136 309.613 13.107 309.613 15.355C309.613 17.211 308.814 18.88 307.541 20.035L326.876 53.603H413.111L433.435 18.318C432.881 17.464 432.559 16.447 432.559 15.355C432.559 13.432 433.554 11.743 435.056 10.774L429.406 0.960022H429.991L435.496 10.519C436.242 10.132 437.089 9.91202 437.987 9.91202C438.083 9.91202 438.178 9.91502 438.272 9.91902L443.432 0.960022H446.479L440.852 10.731C442.324 11.651 443.325 13.257 443.41 15.101H489.999V15.61H443.41C443.276 18.497 440.898 20.795 437.987 20.795C437.09 20.795 436.243 20.577 435.497 20.19L415.442 55.007L436.955 92.357L458.513 129.786H489.999V132.013V132.433V132.52H458.464L436.955 169.865L415.396 207.296L435.439 242.094C436.235 241.808 437.093 241.651 437.987 241.651C442.049 241.651 445.358 244.884 445.494 248.922H489.999V249.432H445.494C445.421 251.636 444.404 253.601 442.833 254.931L458.513 282.157H489.999V284.801H456.99L440.55 256.257C439.75 256.549 438.887 256.708 437.987 256.708C436.71 256.708 435.507 256.387 434.453 255.824L415.786 288.234L406.088 305.07C406.899 305.634 407.43 306.572 407.43 307.632C407.43 308.696 406.899 309.634 406.088 310.196L426.96 346.434L434.159 358.932C435.299 358.318 436.603 357.97 437.987 357.97C442.375 357.97 445.947 361.468 446.083 365.834H489.999V366.344H446.083C445.949 370.709 442.377 374.209 437.987 374.209C436.603 374.209 435.299 373.861 434.159 373.247L415.786 405.145L406.799 420.748C408.033 421.559 408.846 422.956 408.846 424.546C408.846 426.135 408.033 427.533 406.799 428.343L435.693 478.509C436.381 478.156 437.161 477.956 437.987 477.956ZM437.694 15.355L436.418 13.139L437.694 15.355ZM205.761 196.211L233.08 243.643C233.945 243.189 234.93 242.93 235.974 242.93C239.331 242.93 242.068 245.59 242.202 248.922H299.681C299.811 247.026 301.387 245.527 303.313 245.527C303.885 245.527 304.427 245.66 304.909 245.896C304.909 245.896 304.909 245.896 304.91 245.896L326.38 208.619H325.349L281.52 132.52H241.403C241.271 135.41 238.89 137.714 235.974 137.714C235.075 137.714 234.227 137.495 233.479 137.106L236.122 132.52H236.121L233.479 137.106L213.773 171.321L205.76 185.233C207.575 186.383 208.779 188.412 208.779 190.721C208.779 193.032 207.575 195.061 205.761 196.211ZM436.163 129.607L415.347 93.463L407.259 79.422C406.381 79.884 405.381 80.148 404.32 80.148C400.911 80.148 398.133 77.443 398.001 74.062H344.404C344.273 78.057 340.999 81.255 336.981 81.255C335.719 81.255 334.53 80.94 333.488 80.381L337.128 74.062H337.127L333.488 80.381L314.779 112.865L305.622 128.767C306.752 129.518 307.497 130.805 307.497 132.267C307.497 133.73 306.752 135.016 305.622 135.765L325.954 171.067L335.252 187.212C335.774 186.952 336.36 186.807 336.981 186.807C339.054 186.807 340.747 188.425 340.878 190.468H395.802C395.936 185.866 399.698 182.179 404.32 182.179C405.781 182.179 407.157 182.548 408.36 183.198L404.173 190.468H404.174L408.36 183.198L426.521 151.667L436.163 134.925C435.321 134.343 434.767 133.369 434.767 132.267C434.767 131.165 435.321 130.19 436.163 129.607ZM404.32 199.263C399.698 199.263 395.936 195.576 395.802 190.975H340.878C340.748 193.02 339.054 194.635 336.981 194.635C336.36 194.635 335.774 194.491 335.252 194.232L337.128 190.975H337.127L335.252 194.232L328.49 205.972H412.81L408.36 198.244C407.157 198.893 405.781 199.263 404.32 199.263ZM334.813 193.977C333.766 193.276 333.076 192.079 333.076 190.721C333.076 189.365 333.766 188.168 334.813 187.465L314.341 151.921L305.183 136.021C304.62 136.301 303.985 136.461 303.313 136.461C301.087 136.461 299.267 134.719 299.137 132.52H284.57L326.876 205.972H327.905L334.813 193.977ZM103.256 19.262C102.668 19.558 102.004 19.725 101.301 19.725C98.978 19.725 97.08 17.905 96.947 15.61H34.107L0.584977 73.809L34.107 132.013H97.397C97.527 129.967 99.223 128.347 101.301 128.347C101.922 128.347 102.51 128.491 103.033 128.751L101.153 132.013H101.154L103.033 128.751L123.502 93.211L130.889 80.384C128.703 79.017 127.248 76.585 127.248 73.813C127.248 71.038 128.703 68.604 130.89 67.237L103.256 19.262ZM202.307 81.468C198.169 81.468 194.802 78.174 194.671 74.062H142.684C142.552 78.221 139.149 81.552 134.968 81.552C133.652 81.552 132.412 81.221 131.328 80.637L112.767 112.865L103.471 129.006C104.52 129.709 105.212 130.907 105.212 132.267C105.212 133.628 104.521 134.826 103.471 135.528L132.643 186.178C133.34 185.819 134.13 185.617 134.968 185.617C137.697 185.617 139.922 187.764 140.054 190.468H195.839C195.972 187.004 198.816 184.234 202.307 184.234C203.396 184.234 204.421 184.502 205.321 184.977L202.16 190.468H202.161L205.321 184.977L224.508 151.667L233.041 136.852C231.536 135.884 230.539 134.191 230.539 132.267C230.539 130.341 231.536 128.649 233.04 127.681L213.334 93.463L205.905 80.566C204.833 81.141 203.608 81.468 202.307 81.468ZM305.257 21.362C304.645 21.562 303.992 21.669 303.313 21.669C299.92 21.669 297.153 18.98 297.018 15.61H241.367C241.233 18.479 238.869 20.765 235.974 20.765C235.081 20.765 234.24 20.548 233.499 20.163L206.343 67.309C208.505 68.662 209.944 71.067 209.944 73.813C209.944 76.553 208.505 78.96 206.344 80.311L224.947 112.611L233.478 127.425C234.227 127.038 235.075 126.818 235.974 126.818C238.89 126.818 241.271 129.12 241.403 132.013H281.229L280.708 131.109L324.587 54.928L305.257 21.362ZM326.726 56.512L283.759 131.109L284.279 132.013H299.137C299.267 129.814 301.087 128.072 303.313 128.072C303.985 128.072 304.62 128.232 305.182 128.513L325.514 93.211L333.049 80.127C330.95 78.814 329.554 76.478 329.554 73.813C329.554 71.146 330.951 68.808 333.05 67.494L326.726 56.512ZM413.111 56.251H327.161L333.49 67.239C334.531 66.683 335.719 66.367 336.981 66.367C340.997 66.367 344.269 69.56 344.404 73.556H398.002C398.136 70.173 400.913 67.475 404.32 67.475C405.381 67.475 406.38 67.736 407.258 68.199L404.173 73.556H404.174L407.258 68.199L413.625 57.144L413.111 56.251ZM435.426 20.152L415.397 54.927L435.426 20.152ZM455.708 132.013L456.228 131.11L456.229 131.109L456.99 129.786L456.228 131.108L456.229 131.109H456.228L434.67 93.681L413.918 57.653L407.697 68.454C409.465 69.577 410.64 71.557 410.64 73.813C410.64 76.064 409.466 78.043 407.698 79.166L426.96 112.611L436.602 129.353C437.022 129.152 437.491 129.039 437.987 129.039C439.682 129.039 441.068 130.351 441.197 132.013H455.707L456.228 131.109V131.11L455.708 132.013ZM434.67 168.541L455.415 132.52H441.197C441.068 134.182 439.682 135.495 437.987 135.495C437.491 135.495 437.022 135.383 436.602 135.181L415.786 171.321L408.799 183.453C411.225 184.959 412.841 187.65 412.841 190.721C412.841 193.793 411.225 196.483 408.799 197.989L413.254 205.724L434.67 168.541ZM426.521 268.579L434.014 255.569C431.891 254.239 430.477 251.874 430.477 249.179C430.477 246.867 431.518 244.798 433.154 243.416L413.112 208.619H326.966L314.779 229.778L305.349 246.152C306.317 246.807 306.955 247.918 306.955 249.179C306.955 250.437 306.317 251.549 305.349 252.205L334.317 302.501C335.114 302.084 336.02 301.848 336.981 301.848C340.082 301.848 342.614 304.303 342.747 307.38H401.22C401.349 305.778 402.686 304.515 404.32 304.515C404.796 304.515 405.247 304.624 405.65 304.816L404.173 307.38H404.174L405.65 304.816L426.521 268.579ZM433.719 372.992C431.419 371.559 429.888 369.002 429.888 366.092C429.888 363.178 431.419 360.621 433.719 359.188L437.694 366.091L437.695 366.092L437.694 366.089V366.091L433.719 359.188L415.347 327.288L405.65 310.451C405.247 310.643 404.796 310.751 404.32 310.751C402.686 310.751 401.349 309.489 401.22 307.888H342.747C342.614 310.964 340.082 313.417 336.981 313.417C336.02 313.417 335.114 313.183 334.317 312.766L305.952 362.018C307.279 362.884 308.156 364.385 308.156 366.092C308.156 367.796 307.278 369.297 305.951 370.163L334.16 419.141C335.004 418.699 335.963 418.447 336.981 418.447C340.256 418.447 342.927 421.043 343.059 424.292H399.796C399.928 421.902 401.903 420.007 404.32 420.007C405.054 420.007 405.748 420.183 406.361 420.494L404.173 424.292H404.174L406.361 420.494L433.719 372.992Z" fill="#13A89E"/>
</svg>
